<svg xmlns="http://www.w3.org/2000/svg" viewBox="0 0 24 24" fill="none" stroke="currentColor" stroke-width="1.55" stroke-linecap="round" stroke-linejoin="round">
  <path d="M12 8.6a3.4 3.4 0 1 1-3.4 3.4A3.4 3.4 0 0 1 12 8.6Z" />
  <path d="M18.6 12a6.6 6.6 0 0 0-.1-1.1l1.9-1.4-1.6-2.8-2.3.9a6.6 6.6 0 0 0-1.8-1l-.4-2.8H9.7l-.4 2.8a6.6 6.6 0 0 0-1.8 1l-2.3-.9-1.6 2.8 1.9 1.4a6.6 6.6 0 0 0 0 2.2l-1.9 1.4 1.6 2.8 2.3-.9a6.6 6.6 0 0 0 1.8 1l.4 2.8h4.6l.4-2.8a6.6 6.6 0 0 0 1.8-1l2.3.9 1.6-2.8-1.9-1.4a6.6 6.6 0 0 0 .1-1.1Z" />
</svg>
