<svg xmlns="http://www.w3.org/2000/svg" viewBox="0 0 24 24" fill="none" stroke="currentColor" stroke-width="1.9" stroke-linecap="round" stroke-linejoin="round">
  <path d="M12 9a3 3 0 1 1-3 3 3 3 0 0 1 3-3Z" />
  <path d="m4.5 13.6-.9-3.2 1.9-.9c.2-.6.5-1.2.9-1.7L5.6 5l2.4-1.8 1.7 1.2c.6-.2 1.2-.4 1.8-.5L12 2h3l.5 1.9c.6.1 1.2.3 1.8.5L19 3.2 21.4 5l-.8 2.8c.4.5.7 1.1.9 1.7l1.9.9-.9 3.2-2 .2a7.4 7.4 0 0 1-1 1.6l.8 2.9-2.4 1.7-1.7-1.1a7.7 7.7 0 0 1-1.8.5L15 22h-3l-.5-1.9a7.7 7.7 0 0 1-1.8-.5L8 20.7l-2.4-1.7.8-2.9a7.4 7.4 0 0 1-1-1.6z" />
</svg>
