<svg xmlns="http://www.w3.org/2000/svg" viewBox="0 0 24 24" fill="none" stroke="currentColor" stroke-width="1.9" stroke-linecap="round" stroke-linejoin="round">
  <path d="M12 8.8a3.2 3.2 0 1 1-3.2 3.2A3.2 3.2 0 0 1 12 8.8Z" />
  <path d="M19.2 12a7.2 7.2 0 0 0-.1-1.2l2-1.5-1.8-3.1-2.4 1a7.2 7.2 0 0 0-2-1.2L14.5 3h-5L9 6a7.2 7.2 0 0 0-2 1.2l-2.4-1-1.8 3.1 2 1.5a7.2 7.2 0 0 0 0 2.4l-2 1.5 1.8 3.1 2.4-1a7.2 7.2 0 0 0 2 1.2l.5 3h5l.5-3a7.2 7.2 0 0 0 2-1.2l2.4 1 1.8-3.1-2-1.5c.1-.4.1-.8.1-1.2Z" />
</svg>
