<?xml version="1.0" encoding="UTF-8"?>
<svg xmlns="http://www.w3.org/2000/svg" viewBox="0 0 87.94 100.13">
  <path fill="#fff" d="M53.52,18.93h0c-4.15-2.12-9.27-2.14-13.45-.05l-11.06,5.43,16.65,8.78,7.85-4.01c6.98-4.16,4.43-7.88,0-10.14Z"/>
  <path fill="#fff" d="M78.18,69.73s-31.14,17.26-31.14,17.26l-35.58-20.06v-8.55l35.93,20.49,33.37-18.74c5.33-3.15,7.18-4.93,7.18-8.96v-11.88c-.41,4.66-3.43,6.71-9.67,10.51,0,0-30.19,16.59-30.87,16.96v-.08L11.45,46.76v-8.74l35.76,18.91,26.11-14.43c14.13-7.92,24.18-20.92-3.66-35.56C54.55-1.73,36.3-2.51,21.82,5.93L0,18.53v50.15h0v4.95h0v.16l47.03,26.34v-.16l32.2-18.06c8.44-4.48,8.51-7.79,8.54-11.04l.15-11.93c-.42,4.66-3.6,7.34-9.76,10.79ZM28.71,14.39c12.59-7.43,23.45-5.92,33.17-.92,7.15,3.82,16.04,11.19,3.95,19.17l-18.79,10.16L11.15,24.29l17.55-9.89Z"/>
</svg>
