<?xml version="1.0" encoding="UTF-8"?>
<svg id="_Слой_1" data-name="Слой 1" xmlns="http://www.w3.org/2000/svg" viewBox="0 0 194.98 100.13">
  <defs>
    <style>
      .cls-1 {
        fill: #fff;
      }

      .cls-2 {
        fill: #9163ff;
      }
    </style>
  </defs>
  <g>
    <path class="cls-1" d="M105.05,44.54c-.56,0-1.07-.09-1.52-.26s-.84-.41-1.16-.7c-.33-.3-.59-.63-.78-1.01s-.31-.77-.37-1.18h1.83c.05.26.13.49.25.68.11.19.26.36.43.48s.37.23.6.29c.22.06.47.09.73.09.46,0,.85-.11,1.19-.33.34-.22.6-.54.78-.98s.28-.98.28-1.64-.09-1.19-.27-1.63-.44-.77-.78-.99c-.34-.22-.74-.34-1.2-.34-.27,0-.51.03-.73.09-.22.06-.42.16-.6.29s-.32.29-.43.48c-.11.19-.19.42-.23.69h-1.84c.06-.5.2-.95.42-1.34.22-.39.49-.72.83-.99.34-.27.72-.47,1.16-.62.43-.14.91-.21,1.41-.21.78,0,1.48.18,2.1.54.62.36,1.11.88,1.47,1.56.36.68.54,1.5.54,2.47s-.18,1.77-.54,2.45c-.36.68-.85,1.2-1.47,1.56-.62.36-1.32.54-2.11.54ZM104.13,40.66v-1.48h3.54v1.48h-3.54Z"/>
    <path class="cls-1" d="M110.52,44.43v-8.87h1.82v3.6h1.02l2.52-3.6h2.15l-3.15,4.32,3.3,4.55h-2.16l-2.67-3.79h-1.02v3.79h-1.82Z"/>
    <path class="cls-1" d="M122.7,44.54c-.78,0-1.49-.18-2.11-.54-.62-.36-1.12-.88-1.48-1.55-.36-.68-.54-1.5-.54-2.46s.18-1.79.54-2.47c.36-.68.86-1.2,1.48-1.56.62-.36,1.33-.54,2.11-.54s1.49.18,2.11.54c.62.36,1.12.88,1.48,1.56.36.68.54,1.5.54,2.47s-.18,1.78-.54,2.46c-.36.68-.86,1.2-1.48,1.55-.62.36-1.33.54-2.11.54ZM122.7,42.93c.46,0,.86-.11,1.21-.34.34-.22.61-.56.8-.99s.29-.97.29-1.6-.09-1.18-.29-1.62-.46-.77-.8-.99c-.34-.22-.75-.34-1.21-.34s-.86.11-1.2.34c-.35.23-.61.56-.8,1s-.29.98-.29,1.61.1,1.16.29,1.6.46.77.8.99c.34.23.75.34,1.2.34Z"/>
    <path class="cls-1" d="M132.07,44.54c-.79,0-1.49-.18-2.11-.54-.62-.36-1.11-.88-1.47-1.55-.36-.68-.54-1.5-.54-2.46s.18-1.79.54-2.47c.36-.68.85-1.2,1.48-1.56.62-.36,1.32-.54,2.1-.54.5,0,.97.07,1.41.21.43.14.82.35,1.16.62.34.27.61.6.83.99.21.39.36.84.42,1.34h-1.84c-.04-.25-.12-.46-.23-.65s-.25-.35-.42-.48c-.17-.13-.36-.23-.58-.3-.22-.07-.45-.1-.71-.1-.46,0-.86.12-1.21.34-.35.23-.62.56-.81,1s-.29.97-.29,1.6.1,1.18.29,1.61.46.77.81.99c.34.22.75.33,1.2.33.25,0,.49-.03.71-.1s.41-.17.58-.3c.17-.13.32-.29.43-.49s.19-.41.24-.65h1.84c-.05.41-.17.81-.37,1.18s-.46.71-.78,1.01c-.33.3-.71.53-1.16.7-.45.17-.95.26-1.51.26Z"/>
    <path class="cls-1" d="M144.9,44.43h-1.86v-4.08c0-.2,0-.46.02-.78.01-.32.03-.68.06-1.07.02-.39.05-.8.07-1.23h.23c-.24.48-.44.9-.62,1.25-.17.35-.34.67-.49.95-.16.29-.33.58-.52.89l-2.54,4.07h-2.03v-8.87h1.86v4.26c0,.24,0,.53-.02.87-.02.34-.04.7-.06,1.07-.02.37-.05.72-.07,1.05h-.19c.15-.41.31-.78.46-1.11.15-.33.3-.63.45-.9.15-.27.29-.52.43-.75l2.8-4.49h2.02v8.87Z"/>
    <path class="cls-1" d="M150.38,44.54c-.79,0-1.49-.18-2.11-.54-.62-.36-1.11-.88-1.47-1.55-.36-.68-.54-1.5-.54-2.46s.18-1.79.54-2.47c.36-.68.85-1.2,1.48-1.56.62-.36,1.32-.54,2.1-.54.5,0,.97.07,1.41.21.43.14.82.35,1.16.62.34.27.61.6.83.99.21.39.36.84.42,1.34h-1.84c-.04-.25-.12-.46-.23-.65s-.25-.35-.42-.48c-.17-.13-.36-.23-.58-.3-.22-.07-.45-.1-.71-.1-.46,0-.86.12-1.21.34-.35.23-.62.56-.81,1s-.29.97-.29,1.6.1,1.18.29,1.61.46.77.81.99c.34.22.75.33,1.2.33.25,0,.49-.03.71-.1s.41-.17.58-.3c.17-.13.32-.29.43-.49s.19-.41.24-.65h1.84c-.05.41-.17.81-.37,1.18s-.46.71-.78,1.01c-.33.3-.71.53-1.16.7-.45.17-.95.26-1.51.26Z"/>
    <path class="cls-1" d="M155.16,37.06v-1.51h7.24v1.51h-2.71v7.36h-1.82v-7.36h-2.71Z"/>
    <path class="cls-1" d="M163.66,44.43v-8.87h5.93v1.51h-4.12v2.14h3.81v1.48h-3.81v2.23h4.13v1.51h-5.95Z"/>
    <path class="cls-1" d="M171.06,44.43v-8.87h2.79l1.44,4.07c.06.19.13.44.21.74.08.3.16.63.24.98s.15.69.22,1.02c.07.33.12.62.17.86h-.35c.04-.24.1-.52.17-.85.07-.33.14-.67.22-1.01.08-.35.16-.68.24-.98.08-.31.15-.55.21-.74l1.42-4.07h2.8v8.87h-1.83v-4.18c0-.19,0-.44,0-.73s.01-.6.02-.94c0-.33.02-.67.03-1.01s.01-.66.02-.96h.11c-.08.33-.16.67-.25,1.02-.09.35-.18.69-.28,1.02-.09.33-.18.63-.26.91-.08.28-.15.5-.21.69l-1.47,4.18h-1.53l-1.49-4.18c-.06-.18-.13-.41-.21-.68-.08-.27-.17-.57-.26-.9-.09-.33-.19-.67-.28-1.02-.09-.35-.18-.7-.27-1.03h.14c0,.29,0,.6.02.93,0,.34.02.67.03,1.01,0,.34.02.65.02.95,0,.29,0,.54,0,.74v4.18h-1.8Z"/>
    <path class="cls-1" d="M181.9,44.43l3.03-8.87h2.38l3.11,8.87h-2.02l-1.42-4.28c-.17-.55-.34-1.16-.52-1.81-.18-.66-.36-1.37-.56-2.15h.4c-.19.78-.37,1.5-.53,2.16-.17.66-.33,1.26-.49,1.8l-1.37,4.28h-2.01ZM183.8,42.37v-1.42h4.73v1.42h-4.73Z"/>
    <path class="cls-1" d="M101,59.05l3.03-8.87h2.38l3.11,8.87h-2.02l-1.42-4.28c-.17-.55-.34-1.16-.52-1.81-.18-.66-.36-1.37-.56-2.15h.4c-.19.78-.37,1.5-.53,2.16-.17.66-.33,1.26-.49,1.8l-1.37,4.28h-2.01ZM102.89,56.99v-1.42h4.73v1.42h-4.73Z"/>
    <path class="cls-1" d="M110.25,60.96v-3.41h.83c.15-.11.29-.25.42-.43.13-.17.25-.39.36-.67.11-.27.2-.61.28-1.02.08-.41.14-.91.19-1.5l.3-3.75h6.18v7.36h1.12v3.41h-1.79v-1.9h-6.11v1.9h-1.79ZM113.17,57.55h3.85v-5.86h-2.7l-.18,2.24c-.05.58-.12,1.1-.21,1.56-.09.46-.2.86-.33,1.21-.13.34-.27.63-.43.85Z"/>
    <path class="cls-1" d="M121.07,60.96v-3.41h.83c.15-.11.29-.25.42-.43.13-.17.25-.39.36-.67.11-.27.2-.61.28-1.02.08-.41.14-.91.19-1.5l.3-3.75h6.18v7.36h1.12v3.41h-1.79v-1.9h-6.11v1.9h-1.79ZM123.98,57.55h3.85v-5.86h-2.7l-.18,2.24c-.05.58-.12,1.1-.21,1.56-.09.46-.2.86-.33,1.21-.13.34-.27.63-.43.85Z"/>
    <path class="cls-1" d="M139.69,59.05h-1.86v-4.08c0-.2,0-.46.02-.78.01-.32.03-.68.06-1.07.02-.39.05-.8.07-1.23h.23c-.24.48-.44.9-.62,1.25-.17.35-.34.67-.49.95-.16.29-.33.58-.52.89l-2.54,4.07h-2.03v-8.87h1.86v4.26c0,.24,0,.53-.02.87-.02.34-.04.7-.06,1.07-.02.37-.05.72-.07,1.05h-.19c.15-.41.31-.78.46-1.11.15-.33.3-.63.45-.9.15-.27.29-.52.43-.75l2.8-4.49h2.02v8.87Z"/>
    <path class="cls-1" d="M140.94,51.69v-1.51h7.24v1.51h-2.71v7.36h-1.82v-7.36h-2.71Z"/>
    <path class="cls-1" d="M157.12,59.05h-1.86v-4.08c0-.2,0-.46.02-.78.01-.32.03-.68.06-1.07.02-.39.05-.8.07-1.23h.23c-.24.48-.44.9-.62,1.25-.17.35-.34.67-.49.95-.16.29-.33.58-.52.89l-2.54,4.07h-2.03v-8.87h1.86v4.26c0,.24,0,.53-.02.87-.02.34-.04.7-.06,1.07-.02.37-.05.72-.07,1.05h-.19c.15-.41.31-.78.46-1.11.15-.33.3-.63.45-.9.15-.27.29-.52.43-.75l2.8-4.49h2.02v8.87Z"/>
    <path class="cls-1" d="M158.72,59.05v-8.87h3.52c.65,0,1.19.1,1.63.29.43.2.76.46.98.81.22.34.32.73.32,1.18,0,.35-.07.65-.21.91s-.33.47-.57.64-.51.28-.82.35v.09c.33.01.65.11.94.28.3.18.54.42.72.74s.28.69.28,1.13c0,.47-.12.89-.35,1.26-.23.37-.57.66-1.02.87s-1.01.32-1.68.32h-3.74ZM160.54,53.91h1.43c.26,0,.49-.05.7-.14.21-.09.37-.23.48-.4.12-.17.18-.38.18-.62,0-.32-.11-.58-.34-.79-.23-.2-.55-.3-.98-.3h-1.47v2.24ZM160.54,57.56h1.57c.53,0,.92-.1,1.17-.31.25-.21.37-.48.37-.82,0-.25-.06-.47-.18-.66s-.29-.34-.51-.45c-.22-.11-.49-.16-.79-.16h-1.62v2.4Z"/>
    <path class="cls-1" d="M166.79,59.05v-8.87h1.82v3.58h3.86v-3.58h1.82v8.87h-1.82v-3.78h-3.86v3.78h-1.82Z"/>
    <path class="cls-1" d="M177.07,53.3h2.23c.69,0,1.29.12,1.8.35s.9.56,1.17.98c.28.42.42.93.42,1.51s-.14,1.11-.41,1.55c-.28.44-.67.77-1.17,1.01-.51.24-1.11.36-1.8.36h-3.4v-8.87h1.82v7.39h1.59c.5,0,.88-.13,1.16-.39.28-.26.42-.61.42-1.07,0-.29-.06-.53-.19-.73-.12-.2-.31-.36-.54-.47-.24-.11-.52-.17-.85-.17h-2.23v-1.45ZM185.49,50.18v8.87h-1.82v-8.87h1.82Z"/>
    <path class="cls-1" d="M186.59,59.05l3.66-5.21v1.38l-3.38-5.04h2.11l.97,1.49c.18.28.33.53.45.76.12.22.22.44.32.65.1.21.21.42.32.65h-.48c.12-.22.23-.44.33-.64.1-.21.21-.42.33-.65.12-.23.27-.48.45-.76l.99-1.49h2.06l-3.32,4.94v-1.32l3.58,5.24h-2.15l-1.23-1.86c-.16-.25-.29-.46-.4-.64-.1-.17-.19-.34-.27-.5-.08-.16-.18-.33-.28-.53h.29c-.1.19-.2.36-.28.52-.08.16-.18.32-.28.5-.1.18-.24.39-.41.64l-1.27,1.86h-2.1Z"/>
    <path class="cls-1" d="M101.15,66.32v-1.51h7.24v1.51h-2.71v7.36h-1.82v-7.36h-2.71Z"/>
    <path class="cls-1" d="M109.64,73.68v-8.87h5.93v1.51h-4.12v2.14h3.81v1.48h-3.81v2.23h4.13v1.51h-5.95Z"/>
    <path class="cls-1" d="M116.55,73.68l3.66-5.21v1.38l-3.38-5.04h2.11l.97,1.49c.18.28.33.53.45.76.12.22.22.44.32.65.1.21.21.42.32.65h-.48c.12-.22.23-.44.33-.64.1-.21.21-.42.33-.65.12-.23.27-.48.45-.76l.99-1.49h2.06l-3.32,4.94v-1.32l3.58,5.24h-2.15l-1.23-1.86c-.16-.25-.29-.46-.4-.64-.1-.17-.19-.34-.27-.5-.08-.16-.18-.33-.28-.53h.29c-.1.19-.2.36-.28.52-.08.16-.18.32-.28.5-.1.18-.24.39-.41.64l-1.27,1.86h-2.1Z"/>
    <path class="cls-1" d="M126.05,73.68v-8.87h1.82v3.58h3.86v-3.58h1.82v8.87h-1.82v-3.78h-3.86v3.78h-1.82Z"/>
    <path class="cls-1" d="M139.05,73.8c-.78,0-1.49-.18-2.11-.54-.62-.36-1.12-.88-1.48-1.55-.36-.68-.54-1.5-.54-2.46s.18-1.79.54-2.47c.36-.68.86-1.2,1.48-1.56.62-.36,1.33-.54,2.11-.54s1.49.18,2.11.54c.62.36,1.12.88,1.48,1.56.36.68.54,1.5.54,2.47s-.18,1.78-.54,2.46c-.36.68-.86,1.2-1.48,1.55-.62.36-1.33.54-2.11.54ZM139.05,72.19c.46,0,.86-.11,1.21-.34.34-.22.61-.56.8-.99s.29-.97.29-1.6-.09-1.18-.29-1.62-.46-.77-.8-.99c-.34-.22-.75-.34-1.21-.34s-.86.11-1.2.34c-.35.23-.61.56-.8,1s-.29.98-.29,1.61.1,1.16.29,1.6.46.77.8.99c.34.23.75.34,1.2.34Z"/>
    <path class="cls-1" d="M144.19,73.68v-1.51h.24c.3,0,.53-.08.69-.24.16-.16.29-.43.37-.82.08-.38.16-.92.21-1.61l.39-4.7h5.99v8.87h-1.82v-7.36h-2.53l-.32,3.76c-.06.7-.17,1.28-.31,1.74-.14.46-.33.83-.57,1.1-.24.27-.53.46-.87.58-.34.12-.74.17-1.2.17h-.28Z"/>
    <path class="cls-1" d="M157.57,73.8c-.78,0-1.49-.18-2.11-.54-.62-.36-1.12-.88-1.48-1.55-.36-.68-.54-1.5-.54-2.46s.18-1.79.54-2.47c.36-.68.86-1.2,1.48-1.56.62-.36,1.33-.54,2.11-.54s1.49.18,2.11.54c.62.36,1.12.88,1.48,1.56.36.68.54,1.5.54,2.47s-.18,1.78-.54,2.46c-.36.68-.86,1.2-1.48,1.55-.62.36-1.33.54-2.11.54ZM157.57,72.19c.46,0,.86-.11,1.21-.34.34-.22.61-.56.8-.99s.29-.97.29-1.6-.09-1.18-.29-1.62-.46-.77-.8-.99c-.34-.22-.75-.34-1.21-.34s-.86.11-1.2.34c-.35.23-.61.56-.8,1s-.29.98-.29,1.61.1,1.16.29,1.6.46.77.8.99c.34.23.75.34,1.2.34Z"/>
    <path class="cls-1" d="M168.92,64.81v1.51h-4.04v7.36h-1.82v-8.87h5.85Z"/>
    <path class="cls-1" d="M177.86,73.68h-1.86v-4.08c0-.2,0-.46.02-.78.01-.32.03-.68.06-1.07.02-.39.05-.8.07-1.23h.23c-.24.48-.44.9-.62,1.25-.17.35-.34.67-.49.95-.16.29-.33.58-.52.89l-2.54,4.07h-2.03v-8.87h1.86v4.26c0,.24,0,.53-.02.87-.02.34-.04.7-.06,1.07-.02.37-.05.72-.07,1.05h-.19c.15-.41.31-.78.46-1.11.15-.33.3-.63.45-.9.15-.27.29-.52.43-.75l2.8-4.49h2.02v8.87Z"/>
    <path class="cls-1" d="M187.15,73.68h-1.86v-4.08c0-.2,0-.46.02-.78.01-.32.03-.68.06-1.07.02-.39.05-.8.07-1.23h.23c-.24.48-.44.9-.62,1.25-.17.35-.34.67-.49.95-.16.29-.33.58-.52.89l-2.54,4.07h-2.03v-8.87h1.86v4.26c0,.24,0,.53-.02.87-.02.34-.04.7-.06,1.07-.02.37-.05.72-.07,1.05h-.19c.15-.41.31-.78.46-1.11.15-.33.3-.63.45-.9.15-.27.29-.52.43-.75l2.8-4.49h2.02v8.87ZM183.15,63.99c-.39,0-.74-.08-1.04-.25s-.55-.39-.74-.67c-.18-.28-.27-.59-.27-.94h1.04c0,.25.1.46.29.62.19.17.43.25.72.25s.53-.08.72-.25c.19-.17.29-.38.29-.62h1.05c0,.34-.09.66-.27.94-.18.28-.43.5-.74.67s-.66.25-1.05.25Z"/>
  </g>
  <g>
    <path class="cls-2" d="M53.52,18.93h0c-4.15-2.12-9.27-2.14-13.45-.05l-11.06,5.43,16.65,8.78,7.85-4.01c6.98-4.16,4.43-7.88,0-10.14Z"/>
    <path class="cls-2" d="M78.18,69.73s-31.14,17.26-31.14,17.26l-35.58-20.06v-8.55l35.93,20.49,33.37-18.74c5.33-3.15,7.18-4.93,7.18-8.96v-11.88c-.41,4.66-3.44,6.71-9.68,10.51,0,0-30.19,16.59-30.87,16.96v-.08L11.45,46.76v-8.74l35.76,18.91,26.11-14.43c14.13-7.92,24.18-20.92-3.66-35.56C54.55-1.73,36.3-2.51,21.82,5.93L0,18.53v50.15h0v4.95h0v.16l47.03,26.34v-.16l32.2-18.06c8.44-4.48,8.51-7.79,8.54-11.04l.15-11.93c-.42,4.66-3.6,7.34-9.76,10.79ZM28.71,14.39c12.59-7.43,23.45-5.92,33.17-.92,7.15,3.82,16.04,11.19,3.95,19.17l-18.79,10.16L11.15,24.29l17.55-9.89Z"/>
  </g>
</svg>